<svg t="1650281569330" class="icon" viewBox="0 0 1024 1024" version="1.1" xmlns="http://www.w3.org/2000/svg" p-id="5109" width="16" height="16"><path d="M409.6 1024c-56.4736 0-102.4-45.9264-102.4-102.4s45.9264-102.4 102.4-102.4 102.4 45.9264 102.4 102.4-45.9264 102.4-102.4 102.4z m0-153.6c-28.2112 0-51.2 22.9888-51.2 51.2s22.9888 51.2 51.2 51.2 51.2-22.9888 51.2-51.2-22.9888-51.2-51.2-51.2zM768 1024c-56.4736 0-102.4-45.9264-102.4-102.4s45.9264-102.4 102.4-102.4 102.4 45.9264 102.4 102.4-45.9264 102.4-102.4 102.4z m0-153.6c-28.2112 0-51.2 22.9888-51.2 51.2s22.9888 51.2 51.2 51.2 51.2-22.9888 51.2-51.2-22.9888-51.2-51.2-51.2zM897.9968 228.7104A69.1712 69.1712 0 0 0 844.8 204.8H217.9584l-5.0688-30.5152A87.9616 87.9616 0 0 0 128 102.4h-51.2a25.6 25.6 0 0 0 0 51.2h51.2c15.7184 0 31.7952 13.6192 34.3552 29.1328l85.5552 513.3824A87.9616 87.9616 0 0 0 332.8 768h512a25.6 25.6 0 0 0 0-51.2h-512a37.0688 37.0688 0 0 1-34.3552-29.1328l-12.6464-75.776 510.208-44.3904c39.68-3.4304 75.9296-36.9152 82.4832-76.2368l34.3552-206.1824a69.3248 69.3248 0 0 0-14.7968-56.4224z m-35.6864 47.9744l-34.3552 206.1824c-2.7136 16.1792-20.0192 32.2048-36.4032 33.6384l-514.2016 44.6976-50.8928-305.2544h618.2912c5.9904 0 11.008 2.048 14.1312 5.7856s4.352 9.0112 3.3792 14.8992z" fill="#707070" p-id="5110"></path></svg>